<svg xmlns="http://www.w3.org/2000/svg" width="1280" height="360" viewBox="0 0 1280 360" role="img" aria-labelledby="title description">
<title id="title">CRYONEXUS · Lunar Eclipse</title><desc id="description">Eisblaues Kristallgitter und eine orange-violette Korona auf dunklem Sternenhintergrund. Du bist Zeitzeuge. Nicht Zuschauer.</desc>
<defs><linearGradient id="bg" x2="1" y2="1"><stop stop-color="#03060d"/><stop offset="1" stop-color="#0b172b"/></linearGradient><radialGradient id="halo"><stop stop-color="#8b7bff" stop-opacity=".23"/><stop offset="1" stop-color="#8b7bff" stop-opacity="0"/></radialGradient><linearGradient id="ice"><stop stop-color="#e0f5fa"/><stop offset=".6" stop-color="#7fe8ff"/><stop offset="1" stop-color="#8b7bff"/></linearGradient><linearGradient id="corona" x2="0" y2="1"><stop stop-color="#7fe8ff"/><stop offset=".55" stop-color="#8b7bff"/><stop offset="1" stop-color="#ff7a3d"/></linearGradient></defs>
<rect width="1280" height="360" rx="14" fill="url(#bg)"/><rect x="1" y="1" width="1278" height="358" rx="13" fill="none" stroke="#7fe8ff" stroke-opacity=".18"/><circle cx="199" cy="221" r="0.6" fill="#b3e9ff" opacity="0.32"/><circle cx="1242" cy="62" r="0.9" fill="#b3e9ff" opacity="0.17"/><circle cx="224" cy="24" r="1.2" fill="#b3e9ff" opacity="0.37"/><circle cx="1003" cy="60" r="1.2" fill="#b3e9ff" opacity="0.12"/><circle cx="1219" cy="108" r="0.6" fill="#b3e9ff" opacity="0.17"/><circle cx="1056" cy="81" r="0.9" fill="#b3e9ff" opacity="0.28"/><circle cx="566" cy="298" r="0.6" fill="#b3e9ff" opacity="0.23"/><circle cx="1138" cy="316" r="0.6" fill="#b3e9ff" opacity="0.15"/><circle cx="577" cy="62" r="0.9" fill="#b3e9ff" opacity="0.50"/><circle cx="899" cy="322" r="0.6" fill="#b3e9ff" opacity="0.33"/><circle cx="812" cy="70" r="1.2" fill="#b3e9ff" opacity="0.42"/><circle cx="626" cy="29" r="1.2" fill="#b3e9ff" opacity="0.32"/><circle cx="733" cy="142" r="1.2" fill="#b3e9ff" opacity="0.19"/><circle cx="453" cy="251" r="0.6" fill="#b3e9ff" opacity="0.29"/><circle cx="539" cy="273" r="0.9" fill="#b3e9ff" opacity="0.19"/><circle cx="107" cy="87" r="0.9" fill="#b3e9ff" opacity="0.15"/><circle cx="42" cy="261" r="0.9" fill="#b3e9ff" opacity="0.16"/><circle cx="1072" cy="193" r="1.2" fill="#b3e9ff" opacity="0.42"/><circle cx="106" cy="153" r="1.2" fill="#b3e9ff" opacity="0.23"/><circle cx="915" cy="158" r="1.2" fill="#b3e9ff" opacity="0.48"/><circle cx="978" cy="22" r="1.2" fill="#b3e9ff" opacity="0.38"/><circle cx="1188" cy="57" r="1.2" fill="#b3e9ff" opacity="0.33"/><circle cx="557" cy="233" r="0.6" fill="#b3e9ff" opacity="0.22"/><circle cx="856" cy="78" r="0.6" fill="#b3e9ff" opacity="0.18"/><circle cx="426" cy="142" r="0.9" fill="#b3e9ff" opacity="0.38"/><circle cx="869" cy="48" r="0.6" fill="#b3e9ff" opacity="0.15"/><circle cx="855" cy="84" r="1.2" fill="#b3e9ff" opacity="0.42"/><circle cx="1219" cy="234" r="0.6" fill="#b3e9ff" opacity="0.29"/><circle cx="263" cy="303" r="0.9" fill="#b3e9ff" opacity="0.38"/><circle cx="982" cy="258" r="1.2" fill="#b3e9ff" opacity="0.46"/><circle cx="816" cy="120" r="1.2" fill="#b3e9ff" opacity="0.38"/><circle cx="887" cy="157" r="0.9" fill="#b3e9ff" opacity="0.15"/><circle cx="770" cy="202" r="1.2" fill="#b3e9ff" opacity="0.16"/><circle cx="885" cy="317" r="0.9" fill="#b3e9ff" opacity="0.42"/><circle cx="92" cy="90" r="1.2" fill="#b3e9ff" opacity="0.46"/><circle cx="1024" cy="21" r="0.6" fill="#b3e9ff" opacity="0.24"/><circle cx="1199" cy="313" r="0.6" fill="#b3e9ff" opacity="0.15"/><circle cx="1100" cy="312" r="0.6" fill="#b3e9ff" opacity="0.46"/><circle cx="32" cy="141" r="0.6" fill="#b3e9ff" opacity="0.36"/><circle cx="705" cy="32" r="0.6" fill="#b3e9ff" opacity="0.36"/><circle cx="892" cy="266" r="0.6" fill="#b3e9ff" opacity="0.12"/><circle cx="29" cy="268" r="1.2" fill="#b3e9ff" opacity="0.13"/><circle cx="439" cy="129" r="0.9" fill="#b3e9ff" opacity="0.43"/><circle cx="827" cy="22" r="0.9" fill="#b3e9ff" opacity="0.17"/><circle cx="1010" cy="148" r="0.6" fill="#b3e9ff" opacity="0.38"/><circle cx="1116" cy="308" r="1.2" fill="#b3e9ff" opacity="0.25"/><circle cx="890" cy="259" r="1.2" fill="#b3e9ff" opacity="0.39"/><circle cx="1060" cy="196" r="0.9" fill="#b3e9ff" opacity="0.13"/><circle cx="300" cy="242" r="1.2" fill="#b3e9ff" opacity="0.19"/><circle cx="749" cy="239" r="0.9" fill="#b3e9ff" opacity="0.18"/><circle cx="856" cy="317" r="1.2" fill="#b3e9ff" opacity="0.30"/><circle cx="1022" cy="86" r="1.2" fill="#b3e9ff" opacity="0.36"/><circle cx="203" cy="265" r="1.2" fill="#b3e9ff" opacity="0.15"/><circle cx="841" cy="296" r="0.9" fill="#b3e9ff" opacity="0.45"/><circle cx="335" cy="261" r="0.6" fill="#b3e9ff" opacity="0.23"/><circle cx="335" cy="93" r="0.6" fill="#b3e9ff" opacity="0.21"/><circle cx="1014" cy="79" r="1.2" fill="#b3e9ff" opacity="0.24"/><circle cx="333" cy="66" r="1.2" fill="#b3e9ff" opacity="0.33"/><circle cx="372" cy="220" r="0.9" fill="#b3e9ff" opacity="0.36"/><circle cx="48" cy="222" r="0.6" fill="#b3e9ff" opacity="0.38"/><circle cx="659" cy="287" r="0.6" fill="#b3e9ff" opacity="0.32"/><circle cx="722" cy="262" r="1.2" fill="#b3e9ff" opacity="0.33"/><circle cx="358" cy="174" r="1.2" fill="#b3e9ff" opacity="0.23"/><circle cx="813" cy="228" r="1.2" fill="#b3e9ff" opacity="0.22"/><circle cx="309" cy="296" r="1.2" fill="#b3e9ff" opacity="0.24"/><circle cx="680" cy="255" r="0.6" fill="#b3e9ff" opacity="0.17"/><circle cx="813" cy="96" r="1.2" fill="#b3e9ff" opacity="0.27"/><circle cx="235" cy="92" r="0.6" fill="#b3e9ff" opacity="0.39"/><circle cx="777" cy="274" r="1.2" fill="#b3e9ff" opacity="0.22"/><circle cx="231" cy="263" r="1.2" fill="#b3e9ff" opacity="0.24"/><circle cx="447" cy="147" r="0.6" fill="#b3e9ff" opacity="0.23"/><circle cx="466" cy="343" r="0.6" fill="#b3e9ff" opacity="0.41"/><circle cx="1035" cy="207" r="0.6" fill="#b3e9ff" opacity="0.43"/><circle cx="167" cy="71" r="0.6" fill="#b3e9ff" opacity="0.38"/><circle cx="752" cy="35" r="0.6" fill="#b3e9ff" opacity="0.42"/>
<circle cx="994" cy="180" r="230" fill="url(#halo)"/><g fill="none" stroke="#7fe8ff" stroke-opacity=".12"><ellipse cx="994" cy="180" rx="244" ry="104" transform="rotate(-22 994 180)"/><ellipse cx="994" cy="180" rx="225" ry="128" transform="rotate(31 994 180)"/><circle cx="994" cy="180" r="156" stroke-dasharray="2 8"/></g>
<path d="M 1094.0 180.0 L 1118.0 180.0" stroke="#7fe8ff" stroke-width="0.7" opacity="0.16"/><path d="M 1093.6 188.7 L 1122.5 191.2" stroke="#7fe8ff" stroke-width="1.1" opacity="0.23"/><path d="M 1092.5 197.4 L 1126.0 203.3" stroke="#7fe8ff" stroke-width="1.5" opacity="0.30000000000000004"/><path d="M 1090.6 205.9 L 1128.3 216.0" stroke="#7fe8ff" stroke-width="0.7" opacity="0.37"/><path d="M 1088.0 214.2 L 1129.3 229.3" stroke="#7fe8ff" stroke-width="1.1" opacity="0.44000000000000006"/><path d="M 1084.6 222.3 L 1129.0 243.0" stroke="#7fe8ff" stroke-width="1.5" opacity="0.16"/><path d="M 1080.6 230.0 L 1127.4 257.0" stroke="#7fe8ff" stroke-width="0.7" opacity="0.23"/><path d="M 1075.9 237.4 L 1095.6 251.1" stroke="#7fe8ff" stroke-width="1.1" opacity="0.30000000000000004"/><path d="M 1070.6 244.3 L 1092.8 262.9" stroke="#7fe8ff" stroke-width="1.5" opacity="0.37"/><path d="M 1064.7 250.7 L 1088.8 274.8" stroke="#7fe8ff" stroke-width="0.7" opacity="0.44000000000000006"/><path d="M 1058.3 256.6 L 1083.3 286.5" stroke="#7fe8ff" stroke-width="1.1" opacity="0.16"/><path d="M 1051.4 261.9 L 1076.6 298.0" stroke="#7fe8ff" stroke-width="1.5" opacity="0.23"/><path d="M 1044.0 266.6 L 1068.5 309.0" stroke="#7fe8ff" stroke-width="0.7" opacity="0.30000000000000004"/><path d="M 1036.3 270.6 L 1059.1 319.6" stroke="#7fe8ff" stroke-width="1.1" opacity="0.37"/><path d="M 1028.2 274.0 L 1036.4 296.5" stroke="#7fe8ff" stroke-width="1.5" opacity="0.44000000000000006"/><path d="M 1019.9 276.6 L 1027.4 304.6" stroke="#7fe8ff" stroke-width="0.7" opacity="0.16"/><path d="M 1011.4 278.5 L 1017.3 312.0" stroke="#7fe8ff" stroke-width="1.1" opacity="0.23"/><path d="M 1002.7 279.6 L 1006.1 318.5" stroke="#7fe8ff" stroke-width="1.5" opacity="0.30000000000000004"/><path d="M 994.0 280.0 L 994.0 324.0" stroke="#7fe8ff" stroke-width="0.7" opacity="0.37"/><path d="M 985.3 279.6 L 981.0 328.4" stroke="#7fe8ff" stroke-width="1.1" opacity="0.44000000000000006"/><path d="M 976.6 278.5 L 967.3 331.7" stroke="#7fe8ff" stroke-width="1.5" opacity="0.16"/><path d="M 968.1 276.6 L 961.9 299.8" stroke="#7fe8ff" stroke-width="0.7" opacity="0.23"/><path d="M 959.8 274.0 L 949.9 301.2" stroke="#7fe8ff" stroke-width="1.1" opacity="0.30000000000000004"/><path d="M 951.7 270.6 L 937.4 301.4" stroke="#7fe8ff" stroke-width="1.5" opacity="0.37"/><path d="M 944.0 266.6 L 924.5 300.4" stroke="#7fe8ff" stroke-width="0.7" opacity="0.44000000000000006"/><path d="M 936.6 261.9 L 911.4 298.0" stroke="#7fe8ff" stroke-width="1.1" opacity="0.16"/><path d="M 929.7 256.6 L 898.2 294.1" stroke="#7fe8ff" stroke-width="1.5" opacity="0.23"/><path d="M 923.3 250.7 L 885.1 288.9" stroke="#7fe8ff" stroke-width="0.7" opacity="0.30000000000000004"/><path d="M 917.4 244.3 L 899.0 259.7" stroke="#7fe8ff" stroke-width="1.1" opacity="0.37"/><path d="M 912.1 237.4 L 888.3 254.0" stroke="#7fe8ff" stroke-width="1.5" opacity="0.44000000000000006"/><path d="M 907.4 230.0 L 878.0 247.0" stroke="#7fe8ff" stroke-width="0.7" opacity="0.16"/><path d="M 903.4 222.3 L 868.0 238.7" stroke="#7fe8ff" stroke-width="1.1" opacity="0.23"/><path d="M 900.0 214.2 L 858.7 229.3" stroke="#7fe8ff" stroke-width="1.5" opacity="0.30000000000000004"/><path d="M 897.4 205.9 L 850.1 218.6" stroke="#7fe8ff" stroke-width="0.7" opacity="0.37"/><path d="M 895.5 197.4 L 842.3 206.7" stroke="#7fe8ff" stroke-width="1.1" opacity="0.44000000000000006"/><path d="M 894.4 188.7 L 870.5 190.8" stroke="#7fe8ff" stroke-width="1.5" opacity="0.16"/><path d="M 894.0 180.0 L 865.0 180.0" stroke="#7fe8ff" stroke-width="0.7" opacity="0.23"/><path d="M 894.4 171.3 L 860.5 168.3" stroke="#7fe8ff" stroke-width="1.1" opacity="0.30000000000000004"/><path d="M 895.5 162.6 L 857.1 155.9" stroke="#7fe8ff" stroke-width="1.5" opacity="0.37"/><path d="M 897.4 154.1 L 854.9 142.7" stroke="#7fe8ff" stroke-width="0.7" opacity="0.44000000000000006"/><path d="M 900.0 145.8 L 854.0 129.0" stroke="#7fe8ff" stroke-width="1.1" opacity="0.16"/><path d="M 903.4 137.7 L 854.4 114.9" stroke="#7fe8ff" stroke-width="1.5" opacity="0.23"/><path d="M 907.4 130.0 L 886.6 118.0" stroke="#7fe8ff" stroke-width="0.7" opacity="0.30000000000000004"/><path d="M 912.1 122.6 L 888.3 106.0" stroke="#7fe8ff" stroke-width="1.1" opacity="0.37"/><path d="M 917.4 115.7 L 891.4 93.9" stroke="#7fe8ff" stroke-width="1.5" opacity="0.44000000000000006"/><path d="M 923.3 109.3 L 895.7 81.7" stroke="#7fe8ff" stroke-width="0.7" opacity="0.16"/><path d="M 929.7 103.4 L 901.4 69.7" stroke="#7fe8ff" stroke-width="1.1" opacity="0.23"/><path d="M 936.6 98.1 L 908.5 57.9" stroke="#7fe8ff" stroke-width="1.5" opacity="0.30000000000000004"/><path d="M 944.0 93.4 L 917.0 46.6" stroke="#7fe8ff" stroke-width="0.7" opacity="0.37"/><path d="M 951.7 89.4 L 941.6 67.6" stroke="#7fe8ff" stroke-width="1.1" opacity="0.44000000000000006"/><path d="M 959.8 86.0 L 949.9 58.8" stroke="#7fe8ff" stroke-width="1.5" opacity="0.16"/><path d="M 968.1 83.4 L 959.3 50.6" stroke="#7fe8ff" stroke-width="0.7" opacity="0.23"/><path d="M 976.6 81.5 L 969.9 43.1" stroke="#7fe8ff" stroke-width="1.1" opacity="0.30000000000000004"/><path d="M 985.3 80.4 L 981.4 36.5" stroke="#7fe8ff" stroke-width="1.5" opacity="0.37"/><path d="M 994.0 80.0 L 994.0 31.0" stroke="#7fe8ff" stroke-width="0.7" opacity="0.44000000000000006"/><path d="M 1002.7 80.4 L 1007.4 26.6" stroke="#7fe8ff" stroke-width="1.1" opacity="0.16"/><path d="M 1011.4 81.5 L 1015.5 57.9" stroke="#7fe8ff" stroke-width="1.5" opacity="0.23"/><path d="M 1019.9 83.4 L 1027.4 55.4" stroke="#7fe8ff" stroke-width="0.7" opacity="0.30000000000000004"/><path d="M 1028.2 86.0 L 1039.8 54.1" stroke="#7fe8ff" stroke-width="1.1" opacity="0.37"/><path d="M 1036.3 89.4 L 1052.7 54.0" stroke="#7fe8ff" stroke-width="1.5" opacity="0.44000000000000006"/><path d="M 1044.0 93.4 L 1066.0 55.3" stroke="#7fe8ff" stroke-width="0.7" opacity="0.16"/><path d="M 1051.4 98.1 L 1079.5 57.9" stroke="#7fe8ff" stroke-width="1.1" opacity="0.23"/><path d="M 1058.3 103.4 L 1093.0 62.0" stroke="#7fe8ff" stroke-width="1.5" opacity="0.30000000000000004"/><path d="M 1064.7 109.3 L 1081.7 92.3" stroke="#7fe8ff" stroke-width="0.7" opacity="0.37"/><path d="M 1070.6 115.7 L 1092.8 97.1" stroke="#7fe8ff" stroke-width="1.1" opacity="0.44000000000000006"/><path d="M 1075.9 122.6 L 1103.8 103.1" stroke="#7fe8ff" stroke-width="1.5" opacity="0.16"/><path d="M 1080.6 130.0 L 1114.4 110.5" stroke="#7fe8ff" stroke-width="0.7" opacity="0.23"/><path d="M 1084.6 137.7 L 1124.5 119.1" stroke="#7fe8ff" stroke-width="1.1" opacity="0.30000000000000004"/><path d="M 1088.0 145.8 L 1134.0 129.0" stroke="#7fe8ff" stroke-width="1.5" opacity="0.37"/><path d="M 1090.6 154.1 L 1142.8 140.1" stroke="#7fe8ff" stroke-width="0.7" opacity="0.44000000000000006"/><path d="M 1092.5 162.6 L 1116.1 158.5" stroke="#7fe8ff" stroke-width="1.1" opacity="0.16"/><path d="M 1093.6 171.3 L 1122.5 168.8" stroke="#7fe8ff" stroke-width="1.5" opacity="0.23"/><circle cx="994" cy="180" r="97" fill="#03060d" stroke="url(#corona)" stroke-width="3"/><circle cx="994" cy="180" r="101" fill="none" stroke="#7fe8ff" stroke-opacity=".12" stroke-width="10"/>
<g stroke="url(#ice)" stroke-width="1.1" stroke-opacity=".7"><path d="M994 111 1055 159 1032 234 959 242 930 164Z" fill="#7fe8ff" fill-opacity=".035"/><path d="M994 111 982 179 930 164M982 179 1055 159M982 179 1032 234M982 179 959 242M994 111 1032 234M930 164 1032 234M1055 159 959 242" fill="none"/></g>
<circle cx="1067" cy="118" r="3.5" fill="#e0f5fa"/><path d="M1054 118h26M1067 105v26" stroke="#7fe8ff" stroke-opacity=".65"/>
<g font-family="Arial,Helvetica,sans-serif"><text x="64" y="76" fill="#7fe8ff" font-size="13" letter-spacing="4">PROTOKOLL 004 / LOKALE SIMULATION</text><text x="59" y="156" fill="url(#ice)" font-size="70" font-weight="700" letter-spacing="-2">CRYONEXUS</text><text x="64" y="205" fill="#a7bacb" font-size="27" letter-spacing="9">LUNAR ECLIPSE</text><text x="64" y="260" fill="#e0f5fa" font-size="19">Du bist Zeitzeuge. Nicht Zuschauer.</text><text x="64" y="317" fill="#8296a9" font-size="11" letter-spacing="2">6 SZENEN / 4 SCHICHTEN / EINE GEMEINSAME WELT</text></g>
<path d="M64 284H640" stroke="#7fe8ff" stroke-opacity=".18"/><path d="M24 38V24H38M1242 336h14v-14" fill="none" stroke="#7fe8ff" stroke-opacity=".7"/>
</svg>